<svg xmlns="http://www.w3.org/2000/svg" width="800" height="500" viewBox="0 0 800 500">
  <rect width="800" height="500" fill="#1a1a2e"/>
  <!-- Tatami -->
  <rect x="50" y="220" width="700" height="230" rx="8" fill="#2d5016" opacity="0.6"/>
  <!-- Small judoka group (kids in white gi, different heights) -->
  <g transform="translate(150, 0)">
    <circle cx="0" cy="300" r="16" fill="#f0d9b5"/>
    <rect x="-14" y="316" width="28" height="40" rx="4" fill="#f5f0e8"/>
    <rect x="-8" y="332" width="16" height="3" rx="1" fill="#f5a623"/>
    <line x1="0" y1="356" x2="-6" y2="390" stroke="#f5f0e8" stroke-width="6" stroke-linecap="round"/>
    <line x1="0" y1="356" x2="6" y2="390" stroke="#f5f0e8" stroke-width="6" stroke-linecap="round"/>
  </g>
  <g transform="translate(250, -15)">
    <circle cx="0" cy="300" r="18" fill="#e8c9a0"/>
    <rect x="-16" y="318" width="32" height="46" rx="4" fill="#f5f0e8"/>
    <rect x="-9" y="336" width="18" height="3" rx="1" fill="#f5a623"/>
    <line x1="0" y1="364" x2="-7" y2="402" stroke="#f5f0e8" stroke-width="6" stroke-linecap="round"/>
    <line x1="0" y1="364" x2="7" y2="402" stroke="#f5f0e8" stroke-width="6" stroke-linecap="round"/>
  </g>
  <g transform="translate(350, 5)">
    <circle cx="0" cy="300" r="15" fill="#f0d9b5"/>
    <rect x="-13" y="315" width="26" height="38" rx="4" fill="#f5f0e8"/>
    <rect x="-7" y="330" width="14" height="3" rx="1" fill="#ffffff"/>
    <line x1="0" y1="353" x2="-5" y2="385" stroke="#f5f0e8" stroke-width="5" stroke-linecap="round"/>
    <line x1="0" y1="353" x2="5" y2="385" stroke="#f5f0e8" stroke-width="5" stroke-linecap="round"/>
  </g>
  <g transform="translate(450, -10)">
    <circle cx="0" cy="300" r="17" fill="#e0c090"/>
    <rect x="-15" y="317" width="30" height="44" rx="4" fill="#f5f0e8"/>
    <rect x="-8" y="334" width="16" height="3" rx="1" fill="#2d8f2d"/>
    <line x1="0" y1="361" x2="-6" y2="398" stroke="#f5f0e8" stroke-width="6" stroke-linecap="round"/>
    <line x1="0" y1="361" x2="6" y2="398" stroke="#f5f0e8" stroke-width="6" stroke-linecap="round"/>
  </g>
  <g transform="translate(550, 0)">
    <circle cx="0" cy="300" r="16" fill="#f0d9b5"/>
    <rect x="-14" y="316" width="28" height="40" rx="4" fill="#f5f0e8"/>
    <rect x="-8" y="332" width="16" height="3" rx="1" fill="#f5a623"/>
    <line x1="0" y1="356" x2="-6" y2="390" stroke="#f5f0e8" stroke-width="6" stroke-linecap="round"/>
    <line x1="0" y1="356" x2="6" y2="390" stroke="#f5f0e8" stroke-width="6" stroke-linecap="round"/>
  </g>
  <!-- Trainer (taller, black belt) -->
  <g transform="translate(650, -40)">
    <circle cx="0" cy="300" r="22" fill="#e0c090"/>
    <rect x="-18" y="322" width="36" height="58" rx="5" fill="#f5f0e8"/>
    <rect x="-10" y="345" width="20" height="4" rx="2" fill="#1a1a2e"/>
    <line x1="0" y1="380" x2="-8" y2="430" stroke="#f5f0e8" stroke-width="7" stroke-linecap="round"/>
    <line x1="0" y1="380" x2="8" y2="430" stroke="#f5f0e8" stroke-width="7" stroke-linecap="round"/>
  </g>
  <!-- Text -->
  <text x="400" y="100" text-anchor="middle" font-family="sans-serif" font-size="28" font-weight="bold" fill="#e0e0e0">Kindertraining</text>
  <text x="400" y="135" text-anchor="middle" font-family="sans-serif" font-size="16" fill="#a0a0a0">Minis, Kinder &amp; Jugend</text>
</svg>